<?xml version="1.0" encoding="UTF-8"?><svg id="a" xmlns="http://www.w3.org/2000/svg" viewBox="0 0 32 32"><circle cx="16.8" cy="17.25" r="11.93" style="fill:#b5eaea;"/><path d="M24.39,17.55l-12.65-5.93L24.39,1.07v16.48ZM14.82,11.22l7.9,3.71V4.63l-7.9,6.59Z" style="fill:#0093ed;"/><path d="M14.11,26.11L1.46,20.18l12.65-10.55v16.48ZM4.54,19.78l7.9,3.71v-10.29l-7.9,6.59Z" style="fill:#0093ed;"/><path d="M24.39,30.93l-12.65-5.93,12.65-10.55v16.48ZM14.82,24.6l7.9,3.71v-10.29l-7.9,6.59Z" style="fill:#0093ed;"/><polygon points="6.75 16.88 3.03 19.98 6.75 21.73 6.75 16.88" style="fill:#0093ed;"/><polygon points="23.56 2.85 19.77 6.01 23.56 7.79 23.56 2.85" style="fill:#0093ed;"/><polygon points="23.56 24.68 19.77 27.84 23.56 29.62 23.56 24.68" style="fill:#0093ed;"/><polygon points="13.28 24.8 17.01 21.69 13.28 19.94 13.28 24.8" style="fill:#0093ed;"/><polygon points="19.85 19.33 23.57 16.23 19.85 14.48 19.85 19.33" style="fill:#0093ed;"/><polygon points="13.26 16.27 16.99 13.17 13.26 11.42 13.26 16.27" style="fill:#0093ed;"/></svg>