<?xml version="1.0" encoding="UTF-8"?><svg id="b" xmlns="http://www.w3.org/2000/svg" viewBox="0 0 150.84 150.78"><g id="c"><path d="M68.06.27c74.08-5.82,111.98,84.67,55.84,132.84-40.6,34.83-104.64,15.6-120.48-34.99C-10.72,52.98,20.59,4,68.06.27ZM73.16,1.62c-1.32-.12-.81-.02-.99.75-6.71,28.68-13.21,58.88-11,88.5,1.48,19.86,7.17,38.84,11,58.25.76-.08.77-.74.97-1.28,3.99-10.77,5.46-18.38,11.82-28.68,14.53-23.54,38.52-37.88,65.21-43.79-6.02-2.06-12.29-3.52-18.26-5.74-29.3-10.9-52.91-37.08-58.74-68.01Z" style="fill:#0093ed;"/></g></svg>