<?xml version="1.0" encoding="UTF-8"?><svg id="a" xmlns="http://www.w3.org/2000/svg" viewBox="0 0 600 200"><circle cx="103.65" cy="108.98" r="63.7" style="fill:#b5eaea;"/><path d="M144.21,110.58l-67.56-31.68,67.56-56.31v87.98ZM93.1,76.78l42.2,19.79v-54.96l-42.2,35.17Z" style="fill:#0093ed;"/><path d="M89.33,156.32l-67.56-31.68,67.56-56.31v87.98ZM38.22,122.52l42.2,19.79v-54.96l-42.2,35.17Z" style="fill:#0093ed;"/><path d="M144.21,182.05l-67.56-31.68,67.56-56.31v87.98ZM93.1,148.25l42.2,19.79v-54.96l-42.2,35.17Z" style="fill:#0093ed;"/><polygon points="49.99 107.03 30.13 123.59 49.99 132.9 49.99 107.03" style="fill:#0093ed;"/><polygon points="139.76 32.1 119.52 48.97 139.76 58.46 139.76 32.1" style="fill:#0093ed;"/><polygon points="139.76 148.69 119.52 165.55 139.76 175.04 139.76 148.69" style="fill:#0093ed;"/><polygon points="84.87 149.31 104.8 132.7 84.87 123.36 84.87 149.31" style="fill:#0093ed;"/><polygon points="119.94 120.12 139.84 103.53 119.94 94.2 119.94 120.12" style="fill:#0093ed;"/><polygon points="84.79 103.77 104.69 87.19 84.79 77.85 84.79 103.77" style="fill:#0093ed;"/><text transform="translate(193.65 45.69)" style="fill:#0093ed; font-family:Metropolis-SemiBold, Metropolis; font-size:21.28px; font-weight:600;"><tspan x="0" y="0" style="letter-spacing:.1em;">ORGHEA</tspan><tspan x="105.23" y="0" style="letter-spacing:.08em;">L</tspan><tspan x="119.06" y="0" style="letter-spacing:.1em;">TH</tspan></text><text transform="translate(186.63 108.51)" style="fill:#0093ed; font-family:Metropolis-ExtraBold, Metropolis; font-size:66.41px; font-weight:700;"><tspan x="0" y="0">Ascent </tspan><tspan x="0" y="60.8">Assessment</tspan></text></svg>