<?xml version="1.0" encoding="UTF-8"?><svg id="b" xmlns="http://www.w3.org/2000/svg" viewBox="0 0 1322.62 168.62"><g id="c"><path d="M68.06.27c74.08-5.82,111.98,84.67,55.84,132.84-40.6,34.83-104.64,15.6-120.48-34.99C-10.72,52.98,20.59,4,68.06.27ZM73.16,1.62c-1.32-.12-.81-.02-.99.75-6.71,28.68-13.21,58.88-11,88.5,1.48,19.86,7.17,38.84,11,58.25.76-.08.77-.74.97-1.28,3.99-10.77,5.46-18.38,11.82-28.68,14.53-23.54,38.52-37.88,65.21-43.79-6.02-2.06-12.29-3.52-18.26-5.74-29.3-10.9-52.91-37.08-58.74-68.01Z" style="fill:#0093ed;"/><path d="M919.66,53.62l4.26-.49c4.95-21.74,18-39.87,42.83-35.35,17.78,3.23,23.15,20.04,25.19,35.86l3.2-.04c4.66-22.95,20.9-40.54,46.04-35.75,22.37,4.27,27.98,27.92,29.5,47.5l-.02,67.27h-31l.02-61.77c-1.05-11.51-3.53-27.3-18.27-27.26-15.87.04-22.45,20.18-23.27,33.26l.02,55.77h-30.5l.02-60.27c-.96-11.1-3.94-28.6-18.26-28.77-16.44-.19-22.23,19.51-23.28,32.77l.02,56.27h-31V20.12h24.5v33.5Z" style="fill:#0093ed;"/><path d="M1233.66,51.62c1.03-.11,3.16.39,3.77-.48.35-.5,2.38-9.68,3.22-11.78,8.21-20.72,29.57-26.43,49.78-19.76,46.93,15.5,43.74,120.37-17.51,116.01-19.52-1.39-29.58-15.51-34.83-32.92l-3.93-.07c1.57,8.64,3.95,17.44,4.49,26.25.79,12.97-.58,26.7,0,39.75h-30.25l-.75-.75V20.12h26v31.5ZM1263.57,42.76c-34.95,1.87-32.64,71.66,5.34,67.85,28.5-2.86,29.19-69.7-5.34-67.85Z" style="fill:#0093ed;"/><path d="M571.16,83.12c.11,12.02,5.38,23.2,17.01,27.74,7.12,2.78,17.45,2.97,24.33-.65,5.94-3.12,8.91-8.97,10.96-15.13l26.66,5.57c-2.99,19.02-17.88,30.74-36.29,33.88-32.74,5.58-65.31-7.03-71.53-42.32s11.31-72.87,51.08-75.13c36.04-2.05,54.74,20.43,56.29,54.75.07,1.52.26,9.53-.49,10.05l-78.03,1.22ZM621.16,65.12c-.68-17.22-15.5-28.21-32.14-22.38-9.93,3.48-15.09,13.17-17.36,22.88l49.5-.5Z" style="fill:#0093ed;"/><path d="M300.16,132.62h-27.5l-2.5-26.5c-4.85-1.06-4.58,3.06-6.42,6.34-9.81,17.42-27.97,27.2-48.09,21.92-18.64-4.89-25.93-24.75-20.23-42.23,7.54-23.12,44.82-21.86,63.73-27.27,6.39-1.82,8.65-4.65,7.99-11.5s-6.37-11.46-12.8-12.2c-14.33-1.65-26.86,4.5-30.48,18.98l-27.2-8.05c6.93-28.82,37.67-37.74,64.18-34.42,46.93,5.89,34.99,52.62,37.29,86.71l2.02,28.23ZM267.66,77.62c-10.04,5.82-35.72,3.91-42.12,14.13-3.64,5.81-1.99,14.63,3.65,18.59,10.21,7.17,25.56-.33,32.72-8.71,1.63-1.91,5.42-7.33,5.92-9.62.33-1.49-.18-1.64-.18-2.13v-12.25Z" style="fill:#0093ed;"/><path d="M736.67,56.62c-1.86-15.71-22.65-19.01-35.22-15.47-11.21,3.15-13.14,13.86-1.77,18.71,19.33,8.25,61.84,6.24,64.48,35.02,3.3,35.97-34.04,43.37-62.18,40.18-17.81-2.02-37.83-10.82-40.6-30.45l23.79-9.49c1.68,11.22,15.1,16.72,25.26,17.5,7.72.59,25.4.08,25.7-10.79.2-7.12-8.4-9.5-13.85-11.06-21.13-6.06-57.02-7.55-59.04-36.46-1.45-20.74,14.59-32.77,33.33-36.04,24.93-4.35,57.97,1.7,65.49,29.62l-25.38,8.74Z" style="fill:#0093ed;"/><path d="M527.67,48.62l-24.72,7.97c-.67-.14-1.36-3.58-1.86-4.65-3.04-6.52-8.91-9.83-15.83-11.17s-23.21-1.45-26.7,6.51c-3.69,8.44,5.02,12.21,11.49,14.2,23.07,7.1,62.43,6.59,60.04,40.83-2.32,33.24-46.42,37.03-71.53,31.16-15.17-3.55-28.67-12.73-31.9-28.82l23.99-9.52c1.18,7.76,8.69,13.25,15.74,15.52,8.14,2.62,30.73,4.38,34.51-5.53,3.7-9.71-7.02-12.81-14.24-14.74-18.46-4.96-51.42-7.48-56.76-30.24s9.08-36.66,29.35-41.16c25.32-5.62,61.65.15,68.41,29.66Z" style="fill:#0093ed;"/><path d="M875.62,48.58l-24.95,8.04c-2.17-15.56-22.1-18.92-34.83-15.58-10.9,2.86-14.05,13.36-2.85,18.51,19.3,8.87,62.85,6.13,65.2,35.8,2.62,33.1-29.22,41.72-56.26,40.26-19.43-1.05-43.48-9.05-46.55-31.01l22.64-9.42.9.44c2.32,9.39,12.18,14.8,21.15,16.35s31.37,2.13,29.61-12.12c-.69-5.62-8.75-7.76-13.4-9.09-19.5-5.59-53.96-7.37-58.46-32.54-7.85-43.87,57.66-50.12,84.02-31.02,6.73,4.87,12.93,12.97,13.79,21.38Z" style="fill:#0093ed;"/><path d="M413.67,48.61l-24.72,7.97c-.67-.14-1.36-3.58-1.86-4.65-3.54-7.6-11.17-11.02-19.24-11.76-7.41-.68-23.73.11-24.06,10.32-.28,8.84,12.93,11.17,19.46,12.78,20.22,4.95,51.25,7.24,52.93,34.07s-22.21,36.96-44.77,38.26c-23.1,1.34-53.14-4.71-58.75-30.98l24-9.52c2.1,10.95,14.7,16.55,24.82,17.44,8.34.73,28.23.32,26.06-12.57-1.03-6.12-10.51-8.49-15.66-9.83-24.56-6.41-60.79-8.52-56.57-43.65,1.83-15.2,16.16-24.48,29.95-27.55,25.33-5.62,61.75.16,68.41,29.65Z" style="fill:#0093ed;"/><path d="M1112.16,20.12l23.45,86.8c.3,1.44,1.57,1.27,2.81,1.25l24.99-88.04h32.25l-37.48,112.27-41.3.26-1.48-.52-37.24-112.01h34Z" style="fill:#0093ed;"/></g></svg>