<?xml version="1.0" encoding="UTF-8"?><svg id="a" xmlns="http://www.w3.org/2000/svg" viewBox="0 0 600 200"><path d="M209.93,101.11c-1.2,3.59-2.31,7.08-2.31,7.08,1.02,2.82,6.02,16.64,6.66,18.41h-19.86l32.92-90.95h14.22l38.69,90.95h-20.5l-15.37-36.64h-30.74l-3.71,11.14ZM242.6,85.74l-15.24-36.12-12.17,36.12h27.41Z" style="fill:#0093ed;"/><path d="M326.37,85.87c-.6-2.05-1.2-4.21-1.79-6.47-.6-2.26-1.43-4.31-2.5-6.15-1.07-1.84-2.46-3.35-4.16-4.55-1.71-1.19-3.97-1.75-6.79-1.67-1.02,0-2.07.19-3.14.58-1.07.38-2.01.94-2.82,1.67-.81.73-1.45,1.6-1.92,2.63-.47,1.02-.58,2.26-.32,3.71.34,2.05,1.49,3.84,3.46,5.38,1.96,1.54,4.31,3.01,7.05,4.42,2.73,1.41,5.66,2.86,8.77,4.36,3.12,1.5,5.98,3.27,8.58,5.32,2.6,2.05,4.78,4.44,6.53,7.17,1.75,2.73,2.63,6.06,2.63,9.99,0,2.22-.73,4.29-2.18,6.21-1.45,1.92-3.37,3.59-5.76,5-2.39,1.41-5.15,2.5-8.26,3.27-3.12.77-6.38,1.15-9.8,1.15-5.72,0-11.19-1.03-16.4-3.07-5.21-2.05-9.44-5.59-12.68-10.63l10.12-11.14c.51,2.05,1.28,4.29,2.31,6.73,1.02,2.43,2.33,4.72,3.91,6.85,1.58,2.14,3.41,3.91,5.51,5.32,2.09,1.41,4.42,2.11,6.98,2.11,3.5,0,6.19-.87,8.07-2.63,1.88-1.75,2.65-3.99,2.31-6.73-.26-2.31-1.33-4.25-3.2-5.83-1.88-1.58-4.12-3.07-6.73-4.48-2.61-1.41-5.4-2.8-8.39-4.16-2.99-1.37-5.76-2.92-8.33-4.68-2.56-1.75-4.68-3.8-6.34-6.15-1.67-2.35-2.5-5.23-2.5-8.65s.72-6.21,2.18-8.39c1.45-2.18,3.33-3.91,5.64-5.19,2.31-1.28,4.91-2.16,7.81-2.63,2.9-.47,5.81-.7,8.71-.7,2.31,0,4.7.26,7.17.77,2.48.51,4.87,1.37,7.17,2.56,2.31,1.2,4.46,2.73,6.47,4.61,2,1.88,3.69,4.23,5.06,7.05l-12.43,7.05Z" style="fill:#0093ed;"/><path d="M390.42,92.15c.26-3.16.26-6.21,0-9.16-.26-2.95-.79-5.55-1.6-7.81-.81-2.26-1.92-4.08-3.33-5.44-1.41-1.37-3.14-2.05-5.19-2.05-2.99,0-5.55.7-7.69,2.11-2.14,1.41-3.89,3.2-5.25,5.38-1.37,2.18-2.37,4.59-3.01,7.24-.64,2.65-.96,5.21-.96,7.69,0,3.25.6,6.55,1.79,9.93,1.2,3.37,2.9,6.45,5.12,9.22,2.22,2.78,4.89,5.04,8.01,6.79,3.12,1.75,6.64,2.63,10.57,2.63,3.24,0,6.45-.45,9.61-1.35,3.16-.9,5.72-2.67,7.69-5.32l1.03.77c-1.28,2.31-2.97,4.4-5.06,6.28-2.09,1.88-4.38,3.48-6.85,4.8-2.48,1.33-5.06,2.33-7.75,3.01-2.69.68-5.36,1.03-8.01,1.03-4.36,0-8.5-.79-12.43-2.37-3.93-1.58-7.37-3.73-10.31-6.47-2.95-2.73-5.3-5.96-7.05-9.67-1.75-3.71-2.63-7.71-2.63-11.98,0-5.04.83-9.63,2.5-13.77,1.67-4.14,3.97-7.69,6.92-10.63,2.95-2.95,6.45-5.21,10.5-6.79,4.06-1.58,8.47-2.37,13.26-2.37,7.69,0,13.64,1.47,17.87,4.42,4.23,2.95,7.15,6.77,8.77,11.46l-16.52,12.42Z" style="fill:#0093ed;"/><path d="M438.32,110.34c2.22,1.97,4.68,3.5,7.37,4.61,2.69,1.11,5.49,1.67,8.39,1.67,4.36,0,7.94-1.09,10.76-3.27,2.82-2.18,5.08-5.27,6.79-9.29l1.02.77c-1.88,7-5,12.53-9.35,16.59-4.36,4.06-10.16,6.08-17.42,6.08-3.5,0-6.96-.53-10.38-1.6-3.42-1.07-6.55-2.6-9.42-4.61-2.86-2.01-5.36-4.44-7.49-7.3-2.14-2.86-3.67-6.04-4.61-9.54-1.62-6.06-2.05-11.55-1.28-16.46.77-4.91,2.39-9.09,4.87-12.55,2.48-3.46,5.55-6.15,9.22-8.07,3.67-1.92,7.56-3.01,11.66-3.27.43,0,.87-.02,1.34-.06.47-.04.92-.06,1.34-.06,4.53,0,8.43.66,11.72,1.99,3.29,1.33,6.08,3.14,8.39,5.44,2.31,2.31,4.12,5,5.44,8.07,1.32,3.07,2.24,6.4,2.75,9.99l-31.13,20.88ZM436.02,108.29c4.7-2.99,8.28-6.19,10.76-9.61,2.48-3.41,4.01-6.83,4.61-10.25.43-2.56.4-5.06-.06-7.49-.47-2.43-1.3-4.61-2.5-6.53-1.2-1.92-2.65-3.48-4.36-4.68-1.71-1.19-3.59-1.79-5.64-1.79h-.64c-2.05.09-3.99.58-5.83,1.47-1.84.9-3.35,2.33-4.55,4.29-1.2,1.97-1.88,4.55-2.05,7.75-.17,3.2.38,7.2,1.67,11.98.68,2.73,1.77,5.38,3.27,7.94,1.49,2.56,3.27,4.87,5.32,6.92Z" style="fill:#0093ed;"/><path d="M499.81,126.61h-17.29v-52.01c0-1.71-.15-3.01-.45-3.91-.3-.9-.77-1.56-1.41-1.99-.64-.43-1.5-.7-2.56-.83-1.07-.13-2.33-.28-3.78-.45v-1.79l25.49-2.56v14.09c1.2-1.71,2.65-3.35,4.36-4.93,1.71-1.58,3.61-2.99,5.7-4.23,2.09-1.24,4.27-2.24,6.53-3.01,2.26-.77,4.46-1.15,6.6-1.15,6.23,0,10.91,1.69,14.03,5.06,3.12,3.37,4.68,7.88,4.68,13.51v44.19h-17.29v-42.78c0-2.99-.75-5.34-2.24-7.05-1.5-1.71-3.99-2.56-7.49-2.56-2.65,0-5.32.56-8.01,1.67-2.69,1.11-4.98,2.52-6.85,4.23v46.5Z" style="fill:#0093ed;"/><path d="M592.68,118.02c-2.31,3.16-4.95,5.55-7.94,7.17-2.99,1.62-5.98,2.43-8.97,2.43-2.82,0-5.25-.58-7.3-1.73s-3.76-2.65-5.12-4.48c-1.37-1.84-2.39-3.95-3.07-6.34-.68-2.39-1.02-4.87-1.02-7.43v-33.18c0-5.12-2.56-7.69-7.69-7.69h-1.79v-1.28l25.49-18.32h1.28v17.93h15.12v3.46h-15.12v39.2c0,1.11.06,2.41.19,3.91.13,1.5.43,2.93.9,4.29.47,1.37,1.15,2.52,2.05,3.46.9.94,2.11,1.41,3.65,1.41,2.31,0,5.17-1.28,8.58-3.84l.77,1.02Z" style="fill:#0093ed;"/><circle cx="102.37" cy="107.79" r="74.56" style="fill:#b5eaea;"/><path d="M149.84,109.66l-79.08-37.08L149.84,6.68v102.98ZM90.02,70.1l49.4,23.16V28.93l-49.4,41.17Z" style="fill:#0093ed;"/><path d="M85.6,163.2L6.52,126.12,85.6,60.22v102.98ZM25.78,123.64l49.4,23.16v-64.33l-49.4,41.17Z" style="fill:#0093ed;"/><path d="M149.84,193.32l-79.08-37.08,79.08-65.91v102.98ZM90.02,153.76l49.4,23.16v-64.33l-49.4,41.17Z" style="fill:#0093ed;"/><polygon points="39.56 105.52 16.31 124.89 39.56 135.79 39.56 105.52" style="fill:#0093ed;"/><polygon points="144.63 17.81 120.94 37.55 144.63 48.66 144.63 17.81" style="fill:#0093ed;"/><polygon points="144.63 154.27 120.94 174.01 144.63 185.12 144.63 154.27" style="fill:#0093ed;"/><polygon points="80.39 155 103.71 135.56 80.39 124.63 80.39 155" style="fill:#0093ed;"/><polygon points="121.44 120.83 144.73 101.41 121.44 90.49 121.44 120.83" style="fill:#0093ed;"/><polygon points="80.29 101.7 103.59 82.28 80.29 71.36 80.29 101.7" style="fill:#0093ed;"/><path d="M202.71,148.09h3.04l8.51,19.76h-4.02l-1.84-4.52h-8.57l-1.79,4.52h-3.94l8.6-19.76ZM207.17,160.32l-3.04-8.04-3.1,8.04h6.14Z" style="fill:#0093ed;"/><path d="M229.09,152.22c-.37-.48-.9-.89-1.58-1.21-.68-.33-1.36-.49-2.05-.49-.41,0-.82.05-1.23.15s-.78.26-1.12.47-.61.49-.82.84c-.21.34-.32.76-.32,1.24,0,.45.09.83.28,1.14.19.32.44.59.77.81s.72.42,1.19.59c.46.17.98.33,1.54.5.63.21,1.29.44,1.97.7.68.26,1.3.61,1.87,1.03.57.43,1.03.97,1.4,1.62.36.65.54,1.46.54,2.43,0,1.06-.2,1.99-.59,2.78-.39.79-.91,1.45-1.56,1.97-.65.52-1.42.91-2.29,1.17-.88.26-1.8.39-2.76.39-1.28,0-2.54-.24-3.77-.71-1.23-.47-2.23-1.18-3.01-2.11l2.51-2.34c.48.67,1.13,1.2,1.94,1.59.81.39,1.6.59,2.39.59.41,0,.83-.05,1.26-.15.43-.1.81-.27,1.16-.52.34-.24.62-.54.84-.91s.32-.81.32-1.35-.12-.95-.36-1.3c-.24-.34-.57-.64-.98-.89s-.89-.47-1.45-.66c-.56-.19-1.14-.38-1.76-.59-.6-.19-1.19-.41-1.79-.67-.6-.26-1.13-.6-1.61-1.03-.47-.43-.86-.95-1.16-1.58-.3-.62-.45-1.4-.45-2.33,0-1,.21-1.87.63-2.6.42-.73.97-1.33,1.65-1.8s1.45-.83,2.32-1.06c.87-.23,1.74-.35,2.64-.35,1,0,2.02.18,3.06.53,1.03.35,1.93.88,2.69,1.59l-2.29,2.51Z" style="fill:#0093ed;"/><path d="M247.9,152.22c-.37-.48-.9-.89-1.58-1.21-.68-.33-1.36-.49-2.05-.49-.41,0-.82.05-1.23.15s-.78.26-1.12.47-.61.49-.82.84c-.21.34-.32.76-.32,1.24,0,.45.09.83.28,1.14.19.32.44.59.77.81s.72.42,1.19.59c.46.17.98.33,1.54.5.63.21,1.29.44,1.97.7.68.26,1.3.61,1.87,1.03.57.43,1.03.97,1.4,1.62.36.65.54,1.46.54,2.43,0,1.06-.2,1.99-.59,2.78-.39.79-.91,1.45-1.56,1.97-.65.52-1.42.91-2.29,1.17-.88.26-1.8.39-2.76.39-1.28,0-2.54-.24-3.77-.71-1.23-.47-2.23-1.18-3.01-2.11l2.51-2.34c.48.67,1.13,1.2,1.94,1.59.81.39,1.6.59,2.39.59.41,0,.83-.05,1.26-.15.43-.1.81-.27,1.16-.52.34-.24.62-.54.84-.91s.32-.81.32-1.35-.12-.95-.36-1.3c-.24-.34-.57-.64-.98-.89s-.89-.47-1.45-.66c-.56-.19-1.14-.38-1.76-.59-.6-.19-1.19-.41-1.79-.67-.6-.26-1.13-.6-1.61-1.03-.47-.43-.86-.95-1.16-1.58-.3-.62-.45-1.4-.45-2.33,0-1,.21-1.87.63-2.6.42-.73.97-1.33,1.65-1.8s1.45-.83,2.32-1.06c.87-.23,1.74-.35,2.64-.35,1,0,2.02.18,3.06.53,1.03.35,1.93.88,2.69,1.59l-2.29,2.51Z" style="fill:#0093ed;"/><path d="M256.64,148.09h13.09v3.07h-9.57v5.02h9.07v2.96h-9.07v5.58h10.08v3.13h-13.59v-19.76Z" style="fill:#0093ed;"/><path d="M286.53,152.22c-.37-.48-.9-.89-1.58-1.21-.68-.33-1.36-.49-2.05-.49-.41,0-.82.05-1.23.15s-.78.26-1.12.47-.61.49-.82.84c-.21.34-.32.76-.32,1.24,0,.45.09.83.28,1.14.19.32.44.59.77.81s.72.42,1.19.59c.46.17.98.33,1.54.5.63.21,1.29.44,1.97.7.68.26,1.3.61,1.87,1.03.57.43,1.03.97,1.4,1.62.36.65.54,1.46.54,2.43,0,1.06-.2,1.99-.59,2.78-.39.79-.91,1.45-1.56,1.97-.65.52-1.42.91-2.29,1.17-.88.26-1.8.39-2.76.39-1.28,0-2.54-.24-3.77-.71-1.23-.47-2.23-1.18-3.01-2.11l2.51-2.34c.48.67,1.13,1.2,1.94,1.59.81.39,1.6.59,2.39.59.41,0,.83-.05,1.26-.15.43-.1.81-.27,1.16-.52.34-.24.62-.54.84-.91s.32-.81.32-1.35-.12-.95-.36-1.3c-.24-.34-.57-.64-.98-.89s-.89-.47-1.45-.66c-.56-.19-1.14-.38-1.76-.59-.6-.19-1.19-.41-1.79-.67-.6-.26-1.13-.6-1.61-1.03-.47-.43-.86-.95-1.16-1.58-.3-.62-.45-1.4-.45-2.33,0-1,.21-1.87.63-2.6.42-.73.97-1.33,1.65-1.8s1.45-.83,2.32-1.06c.87-.23,1.74-.35,2.64-.35,1,0,2.02.18,3.06.53,1.03.35,1.93.88,2.69,1.59l-2.29,2.51Z" style="fill:#0093ed;"/><path d="M305.34,152.22c-.37-.48-.9-.89-1.58-1.21-.68-.33-1.36-.49-2.05-.49-.41,0-.82.05-1.23.15s-.78.26-1.12.47-.61.49-.82.84c-.21.34-.32.76-.32,1.24,0,.45.09.83.28,1.14.19.32.44.59.77.81s.72.42,1.19.59c.46.17.98.33,1.54.5.63.21,1.29.44,1.97.7.68.26,1.3.61,1.87,1.03.57.43,1.03.97,1.4,1.62.36.65.54,1.46.54,2.43,0,1.06-.2,1.99-.59,2.78-.39.79-.91,1.45-1.56,1.97-.65.52-1.42.91-2.29,1.17-.88.26-1.8.39-2.76.39-1.28,0-2.54-.24-3.77-.71-1.23-.47-2.23-1.18-3.01-2.11l2.51-2.34c.48.67,1.13,1.2,1.94,1.59.81.39,1.6.59,2.39.59.41,0,.83-.05,1.26-.15.43-.1.81-.27,1.16-.52.34-.24.62-.54.84-.91s.32-.81.32-1.35-.12-.95-.36-1.3c-.24-.34-.57-.64-.98-.89s-.89-.47-1.45-.66c-.56-.19-1.14-.38-1.76-.59-.6-.19-1.19-.41-1.79-.67-.6-.26-1.13-.6-1.61-1.03-.47-.43-.86-.95-1.16-1.58-.3-.62-.45-1.4-.45-2.33,0-1,.21-1.87.63-2.6.42-.73.97-1.33,1.65-1.8s1.45-.83,2.32-1.06c.87-.23,1.74-.35,2.64-.35,1,0,2.02.18,3.06.53,1.03.35,1.93.88,2.69,1.59l-2.29,2.51Z" style="fill:#0093ed;"/><path d="M314.08,148.09h5.5l5.14,14.04h.08l5.08-14.04h5.53v19.76h-3.49v-15.88h-.06l-6,15.88h-2.46l-5.92-15.88h-.06v15.88h-3.35v-19.76Z" style="fill:#0093ed;"/><path d="M342.55,148.09h13.09v3.07h-9.57v5.02h9.07v2.96h-9.07v5.58h10.08v3.13h-13.59v-19.76Z" style="fill:#0093ed;"/><path d="M362.37,148.09h4.66l9.18,14.79h.06v-14.79h3.52v19.76h-4.47l-9.38-15.27h-.06v15.27h-3.52v-19.76Z" style="fill:#0093ed;"/><path d="M390.92,151.16h-6.06v-3.07h15.63v3.07h-6.06v16.69h-3.52v-16.69Z" style="fill:#0093ed;"/><path d="M414.68,148.09h12.76v3.07h-9.24v5.42h8.71v2.96h-8.71v8.32h-3.52v-19.76Z" style="fill:#0093ed;"/><path d="M432.52,157.92c0-1.58.26-3.01.79-4.28s1.27-2.36,2.21-3.25c.94-.89,2.06-1.58,3.35-2.07,1.29-.48,2.7-.73,4.23-.73s2.97.24,4.27.73c1.3.48,2.43,1.17,3.38,2.07.95.89,1.69,1.98,2.22,3.25s.79,2.7.79,4.28-.26,2.96-.79,4.23-1.27,2.37-2.22,3.29c-.95.92-2.08,1.64-3.38,2.15-1.3.51-2.73.77-4.27.77s-2.94-.26-4.23-.77-2.41-1.23-3.35-2.15c-.94-.92-1.67-2.02-2.21-3.29s-.79-2.68-.79-4.23ZM436.34,157.92c0,1.06.16,2.03.49,2.92.33.88.79,1.65,1.4,2.3.6.65,1.32,1.16,2.15,1.52.83.36,1.74.54,2.75.54s1.93-.18,2.76-.54c.84-.36,1.56-.87,2.16-1.52s1.07-1.42,1.4-2.3.49-1.86.49-2.92-.16-1.97-.49-2.85-.79-1.64-1.38-2.29-1.31-1.16-2.15-1.54c-.84-.37-1.77-.56-2.79-.56s-1.95.19-2.78.56-1.54.88-2.13,1.54c-.6.65-1.06,1.41-1.38,2.29-.33.88-.49,1.82-.49,2.85Z" style="fill:#0093ed;"/><path d="M459.95,148.09h6.87c.93,0,1.83.1,2.71.29.88.2,1.65.52,2.33.96.68.45,1.22,1.03,1.63,1.76s.61,1.61.61,2.65c0,1.43-.4,2.6-1.21,3.5-.81.9-1.91,1.51-3.31,1.83l5.28,8.76h-4.24l-4.58-8.37h-2.57v8.37h-3.52v-19.76ZM466.35,156.6c.5,0,1-.04,1.51-.11.5-.07.95-.21,1.35-.42.4-.21.73-.5.99-.88.26-.38.39-.87.39-1.46,0-.54-.12-.98-.36-1.33-.24-.34-.55-.62-.92-.82-.37-.21-.8-.34-1.27-.42s-.93-.11-1.38-.11h-3.18v5.55h2.88Z" style="fill:#0093ed;"/><path d="M493.39,151.16h-6.06v-3.07h15.63v3.07h-6.06v16.69h-3.52v-16.69Z" style="fill:#0093ed;"/><path d="M508.05,148.09h13.09v3.07h-9.57v5.02h9.07v2.96h-9.07v5.58h10.08v3.13h-13.59v-19.76Z" style="fill:#0093ed;"/><path d="M534.06,148.09h3.04l8.51,19.76h-4.02l-1.84-4.52h-8.57l-1.79,4.52h-3.94l8.6-19.76ZM538.53,160.32l-3.04-8.04-3.1,8.04h6.14Z" style="fill:#0093ed;"/><path d="M550.36,148.09h5.5l5.14,14.04h.08l5.08-14.04h5.53v19.76h-3.49v-15.88h-.06l-6,15.88h-2.46l-5.92-15.88h-.06v15.88h-3.35v-19.76Z" style="fill:#0093ed;"/><path d="M588.91,152.22c-.37-.48-.9-.89-1.58-1.21-.68-.33-1.36-.49-2.05-.49-.41,0-.82.05-1.23.15s-.78.26-1.12.47-.61.49-.82.84c-.21.34-.32.76-.32,1.24,0,.45.09.83.28,1.14.19.32.44.59.77.81s.72.42,1.19.59c.46.17.98.33,1.54.5.63.21,1.29.44,1.97.7.68.26,1.3.61,1.87,1.03.57.43,1.03.97,1.4,1.62.36.65.54,1.46.54,2.43,0,1.06-.2,1.99-.59,2.78-.39.79-.91,1.45-1.56,1.97-.65.52-1.42.91-2.29,1.17-.88.26-1.8.39-2.76.39-1.28,0-2.54-.24-3.77-.71-1.23-.47-2.23-1.18-3.01-2.11l2.51-2.34c.48.67,1.13,1.2,1.94,1.59.81.39,1.6.59,2.39.59.41,0,.83-.05,1.26-.15.43-.1.81-.27,1.16-.52.34-.24.62-.54.84-.91s.32-.81.32-1.35-.12-.95-.36-1.3c-.24-.34-.57-.64-.98-.89s-.89-.47-1.45-.66c-.56-.19-1.14-.38-1.76-.59-.6-.19-1.19-.41-1.79-.67-.6-.26-1.13-.6-1.61-1.03-.47-.43-.86-.95-1.16-1.58-.3-.62-.45-1.4-.45-2.33,0-1,.21-1.87.63-2.6.42-.73.97-1.33,1.65-1.8s1.45-.83,2.32-1.06c.87-.23,1.74-.35,2.64-.35,1,0,2.02.18,3.06.53,1.03.35,1.93.88,2.69,1.59l-2.29,2.51Z" style="fill:#0093ed;"/></svg>