<?xml version="1.0" encoding="UTF-8"?><svg id="a" xmlns="http://www.w3.org/2000/svg" viewBox="0 0 200 200"><circle cx="104.98" cy="107.79" r="74.56" style="fill:#b5eaea;"/><path d="M152.45,109.66l-79.08-37.08L152.45,6.68v102.98ZM92.63,70.1l49.4,23.16V28.93l-49.4,41.17Z" style="fill:#fff;"/><path d="M88.21,163.2L9.13,126.12,88.21,60.22v102.98ZM28.39,123.64l49.4,23.16v-64.33l-49.4,41.17Z" style="fill:#fff;"/><path d="M152.45,193.32l-79.08-37.08,79.08-65.91v102.98ZM92.63,153.76l49.4,23.16v-64.33l-49.4,41.17Z" style="fill:#fff;"/><polygon points="42.17 105.52 18.92 124.89 42.17 135.79 42.17 105.52" style="fill:#fff;"/><polygon points="147.24 17.81 123.55 37.55 147.24 48.66 147.24 17.81" style="fill:#fff;"/><polygon points="147.24 154.27 123.55 174.01 147.24 185.12 147.24 154.27" style="fill:#fff;"/><polygon points="83 155 106.33 135.56 83 124.63 83 155" style="fill:#fff;"/><polygon points="124.05 120.83 147.34 101.41 124.05 90.49 124.05 120.83" style="fill:#fff;"/><polygon points="82.9 101.7 106.2 82.28 82.9 71.36 82.9 101.7" style="fill:#fff;"/></svg>