<?xml version="1.0" encoding="UTF-8"?><svg id="b" xmlns="http://www.w3.org/2000/svg" viewBox="0 0 255.77 68.75"><g id="c"><circle cx="35.31" cy="37.25" r="27.46" style="fill:#b5eaea;"/><path d="M29.13,19.72h0S0,44,0,44l23.66,11.09h0s29.13,13.66,29.13,13.66V0l-23.66,19.72ZM44.07,12.27l4.89,2.29v17.33l-18.2-8.53,13.31-11.09ZM42.33,39.54l-8.45,7.04-4.75-2.23v-10.98l5.01-4.18,8.18,3.84v6.51ZM12.17,38.85l13.12-10.94v23.7l-13.12-6.15v-6.61ZM48.95,39.01v16.95l-5.18,4.32-13.02-6.1,18.2-15.16Z" style="fill:#0093ed;"/><path d="M90.62,26.91h-8.35l-1.23,3.07h-5.89l8.35-21.08h5.89l8.35,21.08h-5.89l-1.23-3.07ZM89,22.8l-2.55-6.47-2.55,6.47h5.09Z" style="fill:#0093ed;"/><path d="M98.51,27.96l2.09-3.34c1.47,1.04,3.5,1.81,5.4,1.81,1.13,0,1.78-.37,1.78-.98,0-.77-1.04-1.07-2.61-1.44-3.07-.71-5.92-1.5-5.95-4.94,0-3.04,2.49-5.31,6.41-5.31,2.36,0,4.67.83,6.44,2.03l-1.9,3.41c-1.38-.89-3.1-1.57-4.54-1.57-.95,0-1.63.43-1.63.92,0,.71.67.86,2.55,1.35,2.82.67,5.98,1.6,5.98,5.22,0,3.19-2.58,5.25-6.66,5.25-2.67,0-5.43-.89-7.36-2.39Z" style="fill:#0093ed;"/><path d="M114.37,22.03c0-4.51,4.05-8.29,8.84-8.29,2.7,0,4.88,1.1,6.41,2.82l-3.44,2.85c-.71-.77-1.9-1.35-3.01-1.35-2.06,0-3.8,1.81-3.8,3.93s1.75,4.02,3.8,4.02c1.14,0,2.36-.58,3.1-1.41l3.44,2.82c-1.56,1.78-3.77,2.92-6.57,2.92-4.76,0-8.78-3.8-8.78-8.32Z" style="fill:#0093ed;"/><path d="M143.22,24.8l3.07,3.1c-1.41,1.44-4.14,2.46-6.51,2.46-4.91,0-8.53-3.47-8.53-8.35s3.5-8.25,8.29-8.25c5.03,0,7.98,3.68,7.98,9.73h-11.32c.49,1.59,1.75,2.67,3.44,2.67,1.23,0,2.64-.52,3.59-1.35ZM136.25,20.32h6.44c-.43-1.44-1.5-2.39-3.07-2.39s-2.82.92-3.38,2.39Z" style="fill:#0093ed;"/><path d="M165.86,19.89v10.1h-4.97v-8.93c0-1.75-1.1-2.98-2.7-2.98s-2.79,1.2-2.79,2.76l-.03-.09v9.24h-5.19v-15.86h5.19v1.81c.98-1.35,2.67-2.18,4.66-2.18,3.41,0,5.83,2.55,5.83,6.14Z" style="fill:#0093ed;"/><path d="M179.21,28.85c-.95.89-2.52,1.5-3.87,1.5-2.98,0-5.06-2.12-5.06-5.09v-7h-2.09v-4.14h2.09v-4.36h4.97v4.36h3.28v4.14h-3.28v6.04c0,1.01.61,1.72,1.44,1.72.58,0,1.17-.21,1.47-.52l1.04,3.34Z" style="fill:#0093ed;"/><path d="M90.62,55h-8.35l-1.23,3.07h-5.89l8.35-21.08h5.89l8.35,21.08h-5.89l-1.23-3.07ZM89,50.89l-2.55-6.47-2.55,6.47h5.09Z" style="fill:#0093ed;"/><path d="M98.51,56.05l2.09-3.34c1.47,1.04,3.5,1.81,5.4,1.81,1.13,0,1.78-.37,1.78-.98,0-.77-1.04-1.07-2.61-1.44-3.07-.71-5.92-1.5-5.95-4.94,0-3.04,2.49-5.31,6.41-5.31,2.36,0,4.67.83,6.44,2.03l-1.9,3.41c-1.38-.89-3.1-1.57-4.54-1.57-.95,0-1.63.43-1.63.92,0,.71.67.86,2.55,1.35,2.82.67,5.98,1.6,5.98,5.22,0,3.19-2.58,5.25-6.66,5.25-2.67,0-5.43-.89-7.36-2.39Z" style="fill:#0093ed;"/><path d="M113.97,56.05l2.09-3.34c1.47,1.04,3.5,1.81,5.4,1.81,1.13,0,1.78-.37,1.78-.98,0-.77-1.04-1.07-2.61-1.44-3.07-.71-5.92-1.5-5.95-4.94,0-3.04,2.49-5.31,6.41-5.31,2.36,0,4.67.83,6.44,2.03l-1.9,3.41c-1.38-.89-3.1-1.57-4.54-1.57-.95,0-1.63.43-1.63.92,0,.71.67.86,2.55,1.35,2.82.67,5.98,1.6,5.98,5.22,0,3.19-2.58,5.25-6.66,5.25-2.67,0-5.43-.89-7.36-2.39Z" style="fill:#0093ed;"/><path d="M141.81,52.89l3.07,3.1c-1.41,1.44-4.14,2.46-6.51,2.46-4.91,0-8.53-3.47-8.53-8.35s3.5-8.25,8.29-8.25c5.03,0,7.98,3.68,7.98,9.73h-11.32c.49,1.59,1.75,2.67,3.44,2.67,1.23,0,2.64-.52,3.59-1.35ZM134.84,48.41h6.44c-.43-1.44-1.5-2.39-3.07-2.39s-2.82.92-3.38,2.39Z" style="fill:#0093ed;"/><path d="M147.6,56.05l2.09-3.34c1.47,1.04,3.5,1.81,5.4,1.81,1.13,0,1.78-.37,1.78-.98,0-.77-1.04-1.07-2.61-1.44-3.07-.71-5.92-1.5-5.95-4.94,0-3.04,2.49-5.31,6.41-5.31,2.36,0,4.67.83,6.44,2.03l-1.9,3.41c-1.38-.89-3.1-1.57-4.54-1.57-.95,0-1.63.43-1.63.92,0,.71.67.86,2.55,1.35,2.82.67,5.98,1.6,5.98,5.22,0,3.19-2.58,5.25-6.66,5.25-2.67,0-5.43-.89-7.36-2.39Z" style="fill:#0093ed;"/><path d="M163.07,56.05l2.09-3.34c1.47,1.04,3.5,1.81,5.4,1.81,1.13,0,1.78-.37,1.78-.98,0-.77-1.04-1.07-2.61-1.44-3.07-.71-5.92-1.5-5.95-4.94,0-3.04,2.49-5.31,6.41-5.31,2.36,0,4.67.83,6.44,2.03l-1.9,3.41c-1.38-.89-3.1-1.57-4.54-1.57-.95,0-1.63.43-1.63.92,0,.71.67.86,2.55,1.35,2.82.67,5.98,1.6,5.98,5.22,0,3.19-2.58,5.25-6.66,5.25-2.67,0-5.43-.89-7.36-2.39Z" style="fill:#0093ed;"/><path d="M205.2,47.98v10.13h-4.97v-9.21c0-1.6-1.04-2.73-2.52-2.73-1.56,0-2.67,1.07-2.67,2.52v9.42h-4.97v-9.21c0-1.6-1.04-2.73-2.52-2.73-1.57,0-2.67,1.07-2.67,2.52v9.39h-5.19v-15.86h5.19v2.06c.77-1.5,2.3-2.42,4.23-2.42,2.12,0,3.96,1.04,5,2.73.86-1.66,2.79-2.73,5.12-2.73,3.31,0,5.95,2.55,5.95,6.14Z" style="fill:#0093ed;"/><path d="M219.78,52.89l3.07,3.1c-1.41,1.44-4.14,2.46-6.51,2.46-4.91,0-8.53-3.47-8.53-8.35s3.5-8.25,8.29-8.25c5.03,0,7.98,3.68,7.98,9.73h-11.32c.49,1.59,1.75,2.67,3.44,2.67,1.23,0,2.64-.52,3.59-1.35ZM212.81,48.41h6.44c-.43-1.44-1.5-2.39-3.07-2.39s-2.82.92-3.38,2.39Z" style="fill:#0093ed;"/><path d="M242.42,47.98v10.1h-4.97v-8.93c0-1.75-1.1-2.98-2.7-2.98s-2.79,1.2-2.79,2.76l-.03-.09v9.24h-5.19v-15.86h5.19v1.81c.98-1.35,2.67-2.18,4.66-2.18,3.41,0,5.83,2.55,5.83,6.14Z" style="fill:#0093ed;"/><path d="M255.77,56.94c-.95.89-2.52,1.5-3.87,1.5-2.98,0-5.06-2.12-5.06-5.09v-7h-2.09v-4.14h2.09v-4.36h4.97v4.36h3.28v4.14h-3.28v6.04c0,1.01.61,1.72,1.44,1.72.58,0,1.17-.21,1.47-.52l1.04,3.34Z" style="fill:#0093ed;"/></g></svg>