<svg xmlns="http://www.w3.org/2000/svg" viewBox="0 0 1240.96 229.95"><defs><style>.cls-1{fill:#19427c;}</style></defs><g id="Layer_2" data-name="Layer 2"><g id="Layer_1-2" data-name="Layer 1"><path class="cls-1" d="M118.32,83a193.59,193.59,0,0,0-21-10.82c16.55-30,2-58.46-21.32-72.2L8.89,114.1a1.29,1.29,0,0,1,.16.09,78.58,78.58,0,0,0,11.19,89.22l46.51-79c23.73,14,38.46,43.25,20.49,73.8h0l-4.44,7.54-3.31,5.63,1-1.78-1.89,3.22.32-.55c-.27.46-.54.93-.82,1.39-.59,1-1.17,2-1.76,3l-2.31,3.94a61.51,61.51,0,0,1-6.13,8.57l1,.14c34,4.71,63.57-15.48,77.24-38.7A78.55,78.55,0,0,0,118.32,83ZM69,229.21l.84-1.43Zm2.67-4.54,2.47-4.2Z"/><path class="cls-1" d="M87.19,198.25c-.41.71-.83,1.42-1.26,2.14Z"/><path class="cls-1" d="M284.64,86.46c-31.08,0-53,24-53,55.57,0,33.44,22.12,55.06,53,55.06,31.08,0,53-24.15,53-55.74C337.68,108.08,315.55,86.46,284.64,86.46Zm.34,97.8c-23.14,0-38.85-16.73-38.85-42.91,0-25.16,15.71-42,38.18-42,23,0,39,16.72,39,42.73C323.32,167.2,307.28,184.26,285,184.26Z"/><path class="cls-1" d="M446.11,119.9C446.11,101,432.94,89,407.26,89H375.68V194.56H390V153.85l18.08-1.18,25.67,41.89h17.06L422.3,150.31C437,145.58,446.11,136,446.11,119.9Zm-38.68,20.78-17.4.51v-39h15.54c16.22,0,26.18,5.74,26.18,18.41C431.75,133.42,421.28,140.17,407.43,140.68Z"/><path class="cls-1" d="M524.82,153.85h29.56v25a50.66,50.66,0,0,1-23,5.41c-23.14,0-38.68-16.73-38.68-42.91s15.37-42,38.34-42c10.81,0,21.79,4,30.4,9.46l4.73-13.18c-8.78-5.57-22.8-9.12-35.13-9.12-30.57,0-52.87,22-52.87,55.57s21.79,55.06,52.87,55.06c11.49,0,26.18-3.38,37.16-10.13V140.51H524.82Z"/><polygon class="cls-1" points="681.05 134.94 623.12 134.94 623.12 88.99 608.76 88.99 608.76 194.56 623.12 194.56 623.12 147.94 681.05 147.94 681.05 194.56 695.24 194.56 695.24 88.99 681.05 88.99 681.05 134.94"/><polygon class="cls-1" points="738.82 194.56 805.7 194.56 805.7 181.22 753.17 181.22 753.17 148.28 796.92 148.28 796.92 134.94 753.17 134.94 753.17 102.34 805.7 102.34 805.7 88.99 738.82 88.99 738.82 194.56"/><path class="cls-1" d="M871.23,89,831.54,194.56h14.87l10-27.7h45.78l10,27.7h14.7L887.62,89ZM861.1,153.85l18.24-50,18.08,50Z"/><polygon class="cls-1" points="972.24 88.99 957.88 88.99 957.88 194.56 1023.25 194.56 1023.25 181.05 972.24 181.05 972.24 88.99"/><polygon class="cls-1" points="1032.87 102.51 1069.86 102.51 1069.86 194.56 1084.05 194.56 1084.05 102.51 1121.04 102.51 1121.04 88.99 1032.87 88.99 1032.87 102.51"/><polygon class="cls-1" points="1226.77 134.94 1168.84 134.94 1168.84 88.99 1154.48 88.99 1154.48 194.56 1168.84 194.56 1168.84 147.94 1226.77 147.94 1226.77 194.56 1240.96 194.56 1240.96 88.99 1226.77 88.99 1226.77 134.94"/></g></g></svg>